<mxfile host="65bd71144e">
    <diagram id="MUhD3rOjZPAu1CDt3qvt" name="Page-1">
        <mxGraphModel dx="2390" dy="2247" grid="1" gridSize="10" guides="1" tooltips="1" connect="1" arrows="1" fold="1" page="1" pageScale="1" pageWidth="850" pageHeight="1100" math="0" shadow="0">
            <root>
                <mxCell id="0"/>
                <mxCell id="1" parent="0"/>
                <mxCell id="2" value="App" style="rounded=1;whiteSpace=wrap;html=1;" vertex="1" parent="1">
                    <mxGeometry x="620" y="-290" width="80" height="110" as="geometry"/>
                </mxCell>
                <mxCell id="4" value="" style="rounded=0;whiteSpace=wrap;html=1;fontStyle=1" vertex="1" parent="1">
                    <mxGeometry x="990" y="-360" width="370" height="540" as="geometry"/>
                </mxCell>
                <mxCell id="5" value="Header" style="rounded=1;whiteSpace=wrap;html=1;" vertex="1" parent="1">
                    <mxGeometry x="620" y="-170" width="80" height="120" as="geometry"/>
                </mxCell>
                <mxCell id="6" value="Nav&lt;br&gt;&lt;br&gt;Fixed flaoting bar" style="rounded=1;whiteSpace=wrap;html=1;" vertex="1" parent="1">
                    <mxGeometry x="520" y="-170" width="80" height="120" as="geometry"/>
                </mxCell>
                <mxCell id="7" value="About" style="rounded=1;whiteSpace=wrap;html=1;" vertex="1" parent="1">
                    <mxGeometry x="620" y="-20" width="80" height="120" as="geometry"/>
                </mxCell>
                <mxCell id="8" value="Projects" style="rounded=1;whiteSpace=wrap;html=1;" vertex="1" parent="1">
                    <mxGeometry x="715" y="-20" width="90" height="120" as="geometry"/>
                </mxCell>
                <mxCell id="9" value="Contact" style="rounded=1;whiteSpace=wrap;html=1;" vertex="1" parent="1">
                    <mxGeometry x="825" y="-30" width="110" height="150" as="geometry"/>
                </mxCell>
                <mxCell id="10" value="home" style="rounded=1;whiteSpace=wrap;html=1;" vertex="1" parent="1">
                    <mxGeometry x="780" y="-280" width="80" height="120" as="geometry"/>
                </mxCell>
                <mxCell id="11" value="Skills" style="rounded=1;whiteSpace=wrap;html=1;" vertex="1" parent="1">
                    <mxGeometry x="480" y="-30" width="90" height="130" as="geometry"/>
                </mxCell>
                <mxCell id="13" value="Short intro" style="text;html=1;strokeColor=none;fillColor=none;align=center;verticalAlign=middle;whiteSpace=wrap;rounded=0;" vertex="1" parent="1">
                    <mxGeometry x="1140" y="-300" width="60" height="30" as="geometry"/>
                </mxCell>
                <mxCell id="14" value="Header" style="text;html=1;strokeColor=none;fillColor=none;align=center;verticalAlign=middle;whiteSpace=wrap;rounded=0;" vertex="1" parent="1">
                    <mxGeometry x="1140" y="-340" width="60" height="30" as="geometry"/>
                </mxCell>
                <mxCell id="15" value="Nav" style="text;html=1;strokeColor=none;fillColor=none;align=center;verticalAlign=middle;whiteSpace=wrap;rounded=0;" vertex="1" parent="1">
                    <mxGeometry x="1140" y="130" width="60" height="30" as="geometry"/>
                </mxCell>
                <mxCell id="16" value="About section" style="text;html=1;strokeColor=none;fillColor=none;align=center;verticalAlign=middle;whiteSpace=wrap;rounded=0;" vertex="1" parent="1">
                    <mxGeometry x="1145" width="60" height="30" as="geometry"/>
                </mxCell>
                <mxCell id="18" value="Project section" style="text;html=1;align=center;verticalAlign=middle;resizable=0;points=[];autosize=1;strokeColor=none;fillColor=none;" vertex="1" parent="1">
                    <mxGeometry x="1125" y="-170" width="100" height="30" as="geometry"/>
                </mxCell>
                <mxCell id="19" value="Skill section" style="text;html=1;align=center;verticalAlign=middle;resizable=0;points=[];autosize=1;strokeColor=none;fillColor=none;" vertex="1" parent="1">
                    <mxGeometry x="1130" y="-80" width="90" height="30" as="geometry"/>
                </mxCell>
                <mxCell id="20" value="Contact" style="text;html=1;align=center;verticalAlign=middle;resizable=0;points=[];autosize=1;strokeColor=none;fillColor=none;" vertex="1" parent="1">
                    <mxGeometry x="1140" y="90" width="60" height="30" as="geometry"/>
                </mxCell>
                <mxCell id="21" value="onclick opens&lt;br&gt;&amp;nbsp;users email" style="text;html=1;align=center;verticalAlign=middle;resizable=0;points=[];autosize=1;strokeColor=none;fillColor=none;" vertex="1" parent="1">
                    <mxGeometry x="830" y="60" width="100" height="40" as="geometry"/>
                </mxCell>
            </root>
        </mxGraphModel>
    </diagram>
</mxfile>